<svg width="1440" height="1024" viewBox="0 0 1440 1024" fill="none" xmlns="http://www.w3.org/2000/svg">
<g clip-path="url(#clip0_464_2490)">
<path d="M253.771 -240.41C287.861 -206.32 314.903 -165.849 333.352 -121.309C351.801 -76.7681 361.297 -29.0298 361.297 19.1806C361.297 67.391 351.801 115.129 333.352 159.67C314.903 204.21 287.861 244.681 253.771 278.771C219.681 312.861 179.211 339.902 134.67 358.352C90.1293 376.801 42.391 386.297 -5.81936 386.297C-54.0298 386.297 -101.768 376.801 -146.309 358.352C-190.849 339.902 -231.32 312.861 -265.41 278.771L-239.229 252.591C-208.578 283.242 -172.189 307.557 -132.14 324.145C-92.0914 340.734 -49.1676 349.272 -5.81936 349.272C37.5289 349.272 80.4527 340.734 120.501 324.145C160.55 307.557 196.939 283.242 227.591 252.591C258.243 221.939 282.557 185.55 299.146 145.501C315.734 105.453 324.272 62.5288 324.272 19.1806C324.272 -24.1677 315.734 -67.0915 299.146 -107.14C282.557 -147.189 258.243 -183.578 227.591 -214.229L253.771 -240.41Z" fill="url(#paint0_linear_464_2490)"/>
<path d="M1145.56 1175.05C1121.45 1133.3 1105.81 1087.21 1099.51 1039.41C1093.22 991.61 1096.41 943.041 1108.88 896.473C1121.36 849.906 1142.89 806.252 1172.24 768.004C1201.59 729.756 1238.18 697.663 1279.93 673.558C1321.68 649.453 1367.77 633.807 1415.57 627.515C1463.37 621.222 1511.94 624.405 1558.51 636.883C1605.07 649.361 1648.73 670.889 1686.98 700.237C1725.22 729.586 1757.32 766.181 1781.42 807.932L1749.36 826.444C1727.68 788.904 1698.83 756 1664.44 729.611C1630.05 703.222 1590.8 683.865 1548.92 672.646C1507.05 661.427 1463.38 658.564 1420.4 664.222C1377.43 669.881 1335.99 683.948 1298.44 705.622C1260.9 727.296 1228 756.153 1201.61 790.543C1175.22 824.934 1155.87 864.185 1144.65 906.056C1133.43 947.927 1130.56 991.598 1136.22 1034.58C1141.88 1077.55 1155.95 1119 1177.62 1156.54L1145.56 1175.05Z" fill="url(#paint1_linear_464_2490)"/>
</g>
<defs>
<linearGradient id="paint0_linear_464_2490" x1="653.528" y1="15.4093" x2="-265.41" y2="-240.41" gradientUnits="userSpaceOnUse">
<stop offset="0.259588" stop-color="#7FD6C3" stop-opacity="0.39"/>
<stop offset="1" stop-color="#067E64" stop-opacity="0.42"/>
</linearGradient>
<linearGradient id="paint1_linear_464_2490" x1="825.634" y1="824.481" x2="1647.05" y2="1309.42" gradientUnits="userSpaceOnUse">
<stop offset="0.259588" stop-color="#7FD6C3" stop-opacity="0.7"/>
<stop offset="1" stop-color="#067E64" stop-opacity="0.42"/>
</linearGradient>
<clipPath id="clip0_464_2490">
<rect width="1440" height="1024" fill="white"/>
</clipPath>
</defs>
</svg>
