<svg width="1440" height="1024" viewBox="0 0 1440 1024" fill="none" xmlns="http://www.w3.org/2000/svg">
<g clip-path="url(#clip0_420_871)">
<path d="M235.771 -240.41C269.861 -206.32 296.903 -165.849 315.352 -121.309C333.801 -76.7681 343.297 -29.0298 343.297 19.1806C343.297 67.391 333.801 115.129 315.352 159.67C296.903 204.21 269.861 244.681 235.771 278.771C201.681 312.861 161.211 339.902 116.67 358.352C72.1293 376.801 24.391 386.297 -23.8194 386.297C-72.0298 386.297 -119.768 376.801 -164.309 358.352C-208.849 339.902 -249.32 312.861 -283.41 278.771L-257.229 252.591C-226.578 283.242 -190.189 307.557 -150.14 324.145C-110.091 340.734 -67.1676 349.272 -23.8194 349.272C19.5289 349.272 62.4527 340.734 102.501 324.145C142.55 307.557 178.939 283.242 209.591 252.591C240.243 221.939 264.557 185.55 281.146 145.501C297.734 105.453 306.272 62.5288 306.272 19.1806C306.272 -24.1677 297.734 -67.0915 281.146 -107.14C264.557 -147.189 240.243 -183.578 209.591 -214.229L235.771 -240.41Z" fill="url(#paint0_linear_420_871)"/>
<path d="M1127.56 1175.05C1103.45 1133.3 1087.81 1087.21 1081.51 1039.41C1075.22 991.61 1078.41 943.041 1090.88 896.473C1103.36 849.906 1124.89 806.252 1154.24 768.004C1183.59 729.756 1220.18 697.663 1261.93 673.558C1303.68 649.453 1349.77 633.807 1397.57 627.515C1445.37 621.222 1493.94 624.405 1540.51 636.883C1587.07 649.361 1630.73 670.889 1668.98 700.237C1707.22 729.586 1739.32 766.181 1763.42 807.932L1731.36 826.444C1709.68 788.904 1680.83 756 1646.44 729.611C1612.05 703.222 1572.8 683.865 1530.92 672.646C1489.05 661.427 1445.38 658.564 1402.4 664.222C1359.43 669.881 1317.99 683.948 1280.44 705.622C1242.9 727.296 1210 756.153 1183.61 790.543C1157.22 824.934 1137.87 864.185 1126.65 906.056C1115.43 947.927 1112.56 991.598 1118.22 1034.58C1123.88 1077.55 1137.95 1119 1159.62 1156.54L1127.56 1175.05Z" fill="url(#paint1_linear_420_871)"/>
</g>
<defs>
<linearGradient id="paint0_linear_420_871" x1="635.528" y1="15.4093" x2="-283.41" y2="-240.41" gradientUnits="userSpaceOnUse">
<stop offset="0.259588" stop-color="#313EBC" stop-opacity="0.15"/>
<stop offset="1" stop-color="#D5D8F4" stop-opacity="0.76"/>
</linearGradient>
<linearGradient id="paint1_linear_420_871" x1="807.634" y1="824.481" x2="1629.05" y2="1309.42" gradientUnits="userSpaceOnUse">
<stop offset="0.259588" stop-color="#313EBC" stop-opacity="0.15"/>
<stop offset="1" stop-color="#D5D8F4" stop-opacity="0.76"/>
</linearGradient>
<clipPath id="clip0_420_871">
<rect width="1440" height="1024" fill="white"/>
</clipPath>
</defs>
</svg>
