<svg width="1440" height="1024" viewBox="0 0 1440 1024" fill="none" xmlns="http://www.w3.org/2000/svg">
<g clip-path="url(#clip0_438_371)">
<path d="M1072.56 1258.05C1048.45 1216.3 1032.81 1170.21 1026.51 1122.41C1020.22 1074.61 1023.41 1026.04 1035.88 979.473C1048.36 932.906 1069.89 889.252 1099.24 851.004C1128.59 812.756 1165.18 780.663 1206.93 756.558C1248.68 732.453 1294.77 716.807 1342.57 710.515C1390.37 704.222 1438.94 707.405 1485.51 719.883C1532.07 732.361 1575.73 753.889 1613.98 783.237C1652.22 812.586 1684.32 849.181 1708.42 890.932L1676.36 909.444C1654.68 871.904 1625.83 839 1591.44 812.611C1557.05 786.222 1517.8 766.865 1475.92 755.646C1434.05 744.427 1390.38 741.564 1347.4 747.222C1304.43 752.881 1262.99 766.948 1225.44 788.622C1187.9 810.296 1155 839.153 1128.61 873.543C1102.22 907.934 1082.87 947.185 1071.65 989.056C1060.43 1030.93 1057.56 1074.6 1063.22 1117.58C1068.88 1160.55 1082.95 1202 1104.62 1239.54L1072.56 1258.05Z" fill="url(#paint0_linear_438_371)"/>
<path d="M212.771 -282.41C246.861 -248.32 273.903 -207.849 292.352 -163.309C310.801 -118.768 320.297 -71.0298 320.297 -22.8194C320.297 25.391 310.801 73.1293 292.352 117.67C273.903 162.21 246.861 202.681 212.771 236.771C178.681 270.861 138.211 297.902 93.6699 316.352C49.1293 334.801 1.39104 344.297 -46.8194 344.297C-95.0298 344.297 -142.768 334.801 -187.309 316.352C-231.849 297.902 -272.32 270.861 -306.41 236.771L-280.229 210.591C-249.578 241.242 -213.189 265.557 -173.14 282.145C-133.091 298.734 -90.1676 307.272 -46.8194 307.272C-3.47111 307.272 39.4527 298.734 79.5012 282.145C119.55 265.557 155.939 241.242 186.591 210.591C217.243 179.939 241.557 143.55 258.146 103.501C274.734 63.4526 283.272 20.5288 283.272 -22.8194C283.272 -66.1677 274.734 -109.091 258.146 -149.14C241.557 -189.189 217.243 -225.578 186.591 -256.229L212.771 -282.41Z" fill="url(#paint1_linear_438_371)"/>
</g>
<defs>
<linearGradient id="paint0_linear_438_371" x1="752.634" y1="907.481" x2="1574.05" y2="1392.42" gradientUnits="userSpaceOnUse">
<stop offset="0.259588" stop-color="#313EBC" stop-opacity="0.15"/>
<stop offset="1" stop-color="#D5D8F4" stop-opacity="0.76"/>
</linearGradient>
<linearGradient id="paint1_linear_438_371" x1="612.528" y1="-26.5907" x2="-306.41" y2="-282.41" gradientUnits="userSpaceOnUse">
<stop offset="0.259588" stop-color="#7FD6C3" stop-opacity="0.7"/>
<stop offset="1" stop-color="#D5D8F4" stop-opacity="0.76"/>
</linearGradient>
<clipPath id="clip0_438_371">
<rect width="1440" height="1024" fill="white"/>
</clipPath>
</defs>
</svg>
